<?xml version="1.0" standalone="no"?>
<!DOCTYPE svg PUBLIC "-//W3C//DTD SVG 20010904//EN"
 "http://www.w3.org/TR/2001/REC-SVG-20010904/DTD/svg10.dtd">
<svg version="1.0" xmlns="http://www.w3.org/2000/svg"
 width="700.000000pt" height="700.000000pt" viewBox="0 0 700.000000 700.000000"
 preserveAspectRatio="xMidYMid meet">
<metadata>
Created by potrace 1.11, written by Peter Selinger 2001-2013
</metadata>
<g transform="translate(0.000000,700.000000) scale(0.100000,-0.100000)"
fill="#000000" stroke="none">
<path d="M3250 6994 c-477 -43 -868 -147 -1265 -338 -941 -452 -1639 -1310
-1885 -2317 -280 -1146 32 -2356 828 -3212 673 -723 1594 -1127 2572 -1127
1176 0 2263 585 2918 1570 302 453 486 949 557 1501 23 172 30 521 16 705
-100 1244 -851 2339 -1976 2880 -342 164 -700 270 -1085 320 -119 15 -574 27
-680 18z m435 -244 c931 -60 1754 -480 2336 -1193 795 -972 958 -2304 423
-3445 -407 -867 -1205 -1527 -2129 -1762 -319 -81 -538 -105 -898 -97 -397 9
-701 66 -1055 198 -907 339 -1619 1069 -1938 1984 -346 991 -186 2100 426
2955 200 279 427 511 707 721 498 374 1109 598 1737 638 176 12 224 12 391 1z"/>
<path d="M3063 3957 c-1157 -1156 -2103 -2106 -2103 -2111 0 -9 4196 -3 4205
6 3 3 4 950 3 2106 l-3 2102 -2102 -2103z"/>
</g>
</svg>
