<?xml version="1.0" encoding="UTF-8" standalone="no"?>
<!DOCTYPE svg PUBLIC "-//W3C//DTD SVG 1.1//EN" "http://www.w3.org/Graphics/SVG/1.1/DTD/svg11.dtd">
<svg version="1.1" xmlns="http://www.w3.org/2000/svg" xmlns:xlink="http://www.w3.org/1999/xlink" preserveAspectRatio="xMidYMid meet" viewBox="0 0 1280 1280" width="1280" height="1280"><defs><path d="M1257.87 639.92C1257.87 980.86 981.01 1257.67 640 1257.67C298.99 1257.67 22.13 980.86 22.13 639.92C22.13 298.97 298.99 22.17 640 22.17C981.01 22.17 1257.87 298.97 1257.87 639.92Z" id="aUUihwN8l"></path><path d="M945.03 171.81L174.97 942.58L945.03 942.58L945.03 171.81Z" id="adWolJiFd"></path><path d="M626.54 791.95L777.02 942.58L476.05 942.58L175.1 942.58L325.56 791.95L476.05 641.32L626.54 791.95Z" id="b1DSgKZ545"></path><path d="M626.6 490.67L777.02 340.05L777 641.33L776.98 942.59L626.58 791.96L476.18 641.31L626.6 490.67Z" id="dkELJHkM3"></path></defs><g><g><use xlink:href="#aUUihwN8l" opacity="1" fill="#ffffff" fill-opacity="1"></use><g><use xlink:href="#aUUihwN8l" opacity="1" fill-opacity="0" stroke="#92009f" stroke-width="45" stroke-opacity="1"></use></g></g><g><use xlink:href="#adWolJiFd" opacity="1" fill="#aa00ff" fill-opacity="1"></use></g><g><use xlink:href="#b1DSgKZ545" opacity="1" fill="#ff0198" fill-opacity="1"></use></g><g><use xlink:href="#dkELJHkM3" opacity="1" fill="#fb00ff" fill-opacity="1"></use></g></g></svg>