<?xml version="1.0" encoding="UTF-8" standalone="no"?>
<!DOCTYPE svg PUBLIC "-//W3C//DTD SVG 1.1//EN" "http://www.w3.org/Graphics/SVG/1.1/DTD/svg11.dtd">
<svg width="100%" height="100%" viewBox="0 0 3120 606" version="1.1" xmlns="http://www.w3.org/2000/svg" xmlns:xlink="http://www.w3.org/1999/xlink" xml:space="preserve" xmlns:serif="http://www.serif.com/" style="fill-rule:evenodd;clip-rule:evenodd;stroke-linejoin:round;stroke-miterlimit:2;">
    <g transform="matrix(1,0,0,1,0,-710.447)">
        <g id="_2" serif:id="2" transform="matrix(1,0,0,1,0,710.447)">
            <rect x="0" y="0" width="3120" height="605.824" style="fill:none;"/>
            <g transform="matrix(3.66071,0,0,3.66071,-1921.62,-3230.6)">
                <path d="M1182.23,928.569C1175.98,925.002 1169.02,923.218 1161.34,923.218C1153.67,923.218 1146.71,925.002 1140.46,928.569C1134.22,932.137 1129.29,937.12 1125.69,943.518C1122.08,949.916 1120.28,957.148 1120.28,965.214C1120.28,973.28 1122.08,980.531 1125.69,986.969C1129.29,993.406 1134.22,998.408 1140.46,1001.98C1146.71,1005.54 1153.67,1007.33 1161.34,1007.33C1169.02,1007.33 1175.98,1005.54 1182.23,1001.98C1188.47,998.408 1193.39,993.406 1197,986.969C1200.61,980.531 1202.41,973.28 1202.41,965.214C1202.41,957.148 1200.61,949.916 1197,943.518C1193.39,937.12 1188.47,932.137 1182.23,928.569ZM697.304,924.381L680.901,924.381L680.901,1006.51L697.304,1006.51L697.304,924.381ZM1026.26,924.381L1009.85,924.381L1009.85,1006.51L1026.26,1006.51L1026.26,924.381ZM1226.21,924.381L1209.81,924.381L1209.81,1006.51L1226.21,1006.51L1226.21,924.381ZM923.508,993.949L923.508,924.381L907.105,924.381L907.105,1006.51L951.079,1006.51L951.079,993.949L923.508,993.949ZM974.882,993.949L974.882,924.381L958.479,924.381L958.479,1006.51L1002.45,1006.51L1002.45,993.949L974.882,993.949ZM867.131,937.411L899.705,937.411L899.705,924.381L850.728,924.381L850.728,1006.51L899.705,1006.51L899.705,993.367L867.131,993.367L867.131,971.264L896.215,971.264L896.215,958.7L867.131,958.7L867.131,937.411ZM843.328,924.381L781.672,924.381L781.672,937.411L804.24,937.411L804.24,1006.51L820.643,1006.51L820.643,937.411L843.328,937.411L843.328,924.381ZM774.272,1006.51L774.272,924.381L757.869,924.381L757.869,980.687L721.107,924.381L704.704,924.381L704.704,1006.51L721.107,1006.51L721.107,950.673L757.869,1006.51L774.272,1006.51ZM1300.74,986.852C1304.15,980.648 1305.86,973.474 1305.86,965.331C1305.86,957.11 1304.15,949.916 1300.74,943.751C1297.33,937.585 1292.38,932.815 1285.9,929.442C1279.43,926.068 1271.73,924.381 1262.81,924.381L1233.61,924.381L1233.61,1006.51L1262.81,1006.51C1271.73,1006.51 1279.43,1004.79 1285.9,1001.34C1292.38,997.884 1297.33,993.057 1300.74,986.852ZM1051.22,924.381L1033.66,924.381L1062.74,1006.51L1083.8,1006.51L1112.88,924.381L1095.31,924.381L1073.21,989.412L1051.22,924.381ZM574.171,1006.51L657.501,923.182L657.501,1006.51L574.171,1006.51ZM1148.66,941.599C1152.31,939.427 1156.54,938.341 1161.34,938.341C1166.15,938.341 1170.38,939.427 1174.02,941.599C1177.67,943.77 1180.52,946.892 1182.58,950.963C1184.63,955.035 1185.66,959.785 1185.66,965.214C1185.66,970.643 1184.63,975.393 1182.58,979.465C1180.52,983.537 1177.67,986.658 1174.02,988.83C1170.38,991.001 1166.15,992.087 1161.34,992.087C1156.54,992.087 1152.31,991.001 1148.66,988.83C1145.02,986.658 1142.17,983.537 1140.11,979.465C1138.06,975.393 1137.03,970.643 1137.03,965.214C1137.03,959.785 1138.06,955.035 1140.11,950.963C1142.17,946.892 1145.02,943.77 1148.66,941.599ZM1281.95,984.875C1277.1,989.528 1270.26,991.855 1261.42,991.855L1250.02,991.855L1250.02,938.69L1261.42,938.69C1270.26,938.69 1277.1,941.017 1281.95,945.67C1286.8,950.324 1289.22,956.877 1289.22,965.331C1289.22,973.707 1286.8,980.221 1281.95,984.875ZM1315.41,959.456C1313.97,961.976 1313.26,964.749 1313.26,967.774C1313.26,970.721 1313.97,973.435 1315.41,975.917C1316.84,978.399 1318.82,980.357 1321.34,981.792C1323.86,983.226 1326.6,983.944 1329.54,983.944C1332.57,983.944 1335.32,983.226 1337.8,981.792C1340.28,980.357 1342.24,978.399 1343.68,975.917C1345.11,973.435 1345.83,970.721 1345.83,967.774C1345.83,964.749 1345.11,961.976 1343.68,959.456C1342.24,956.935 1340.28,954.957 1337.8,953.523C1335.32,952.088 1332.57,951.371 1329.54,951.371C1326.6,951.371 1323.86,952.088 1321.34,953.523C1318.82,954.957 1316.84,956.935 1315.41,959.456Z"/>
            </g>
        </g>
    </g>
</svg>
